<?xml version="1.0" encoding="utf-8"?>
<!-- Generator: Adobe Illustrator 19.2.1, SVG Export Plug-In . SVG Version: 6.00 Build 0)  -->
<svg version="1.1" id="Layer_1" xmlns="http://www.w3.org/2000/svg" xmlns:xlink="http://www.w3.org/1999/xlink" x="0px" y="0px"
	 viewBox="0 0 30 30" style="enable-background:new 0 0 30 30;" xml:space="preserve">
<style type="text/css">
	.st0{display:none;}
	.st1{display:inline;}
	.st2{fill:#FFFFFF;}
	.st3{display:inline;fill:#FFFFFF;}
	.st4{display:none;fill:#FFFFFF;stroke:#FFFFFF;stroke-miterlimit:10;}
</style>
<g id="Layer_2" class="st0">
	<g class="st1">
		<g>
			<path class="st2" d="M5.6,1.6C5.5,1.7,5.4,1.8,5.3,1.9C5.2,2.1,5.5,1.7,5.2,2.1C5.1,2.2,5.1,2.2,5,2.3c0,0-0.3,0.3-0.2,0.2
				C4.3,2.9,4,3.3,4.1,4c0.1,0.5,0.5,1.2,1.1,1.2c0.3,0,0.6,0.1,0.9,0.1c0.8,0.1,1.7-0.2,1.8-1c0.2-0.7-0.2-1.7-1-1.8
				c-0.3,0-0.6-0.1-0.9-0.1c0.1,0.9,0.2,1.8,0.4,2.7c0.7-0.6,1.4-1.2,1.9-2C8.6,2.4,8.3,1.4,7.6,1C6.9,0.6,6,0.9,5.6,1.6L5.6,1.6z"
				/>
		</g>
	</g>
	<g class="st1">
		<g>
			<path class="st2" d="M18.7,1.9c-2.3,1-3.5,3.4-4,5.7c-0.5,2.6,0.9,4.2,2.9,5.7c1.5,1.2,3-1.4,1.5-2.6c-1.3-1-1.7-1.9-1.2-3.4
				c0.4-1.3,1-2.3,2.3-2.8C22,3.7,20.4,1.1,18.7,1.9L18.7,1.9z"/>
		</g>
	</g>
	<g class="st1">
		<g>
			<path class="st2" d="M9.5,5.9C8,6,6.6,6.3,5.2,6.6C5.8,7.3,6.3,8,6.9,8.8C7.5,8,8.1,7.3,8.8,6.7c1.4-1.3-0.7-3.4-2.1-2.1
				C5.8,5.4,5,6.3,4.3,7.2C3.5,8.4,4.8,9.7,6,9.5C7.2,9.2,8.3,9,9.5,8.9C10.3,8.8,11,8.3,11,7.4C11,6.7,10.3,5.8,9.5,5.9L9.5,5.9z"
				/>
		</g>
	</g>
	<path class="st3" d="M11.5,4.1C11.4,4.1,11.4,4,11.3,4C11,3.3,10.4,2.8,9.5,2.9c-1.4,0.2-2.7,0.4-4,0.8C5.1,3.4,4.6,3.4,4.1,3.8
		C3.3,4.3,2.5,4.9,1.6,5.4C0,6.4,1.4,8.9,3.1,8c1.2-0.8,2.4-1.2,3.7-1.6C5.5,7,5.7,9.3,7.4,9.3c0.9,0,1.8-0.2,2.4-1
		c0.6-0.7,1.1-1.4,1.7-2C12,5.6,12.1,4.7,11.5,4.1z"/>
	<path class="st1" d="M37.2,25.7c-1.5,0-3,0-4.5,0c0-0.7-0.4-1.6-1.2-1.7c0.2,0,0.3-0.1,0.4-0.2c0.4-0.1,0.8-0.2,1.3-0.2
		c1.7-0.3,1.3-3.1-0.4-2.9c-0.2,0-0.3,0-0.5,0c0.9-0.3,1.8-0.7,2.7-1.1c0.4-0.2,0.6-0.5,0.7-0.9c0.8-0.8,0.2-2.8-1.2-2.6
		c-0.1,0-0.6,0-0.6,0.1c0,0,0,0,0,0c0,0,0.1,0,0.1,0c-0.4,0.1-0.7,0.1-1.1,0.2c0-0.5-0.2-1.2-0.6-1.9c-0.3-0.4-0.7-0.7-1.1-0.7
		c0-0.4,0.1-0.8,0.1-1.3c0-0.5-0.3-1-0.7-1.2c0-0.2,0-0.4,0-0.5c0.8,0.3,1.7,0.1,1.9-0.9c0.4-2.2,0.5-4.3,0.3-6.6
		c0-0.4-0.2-0.7-0.5-1c0.1-0.9-0.5-1.8-1.5-1.7c-0.1,0-0.2,0-0.3,0c0-0.1,0-0.2,0-0.4c0.1-1.1-0.8-1.6-1.6-1.4c0,0-0.1,0-0.1,0
		c-0.1-0.1-0.2-0.2-0.3-0.2C27-2.7,24.2-2,22.1-1.3c-1.6,0-3.2,0.1-4.9,0.3c-1.8-1.1-4.4-0.4-6.3-0.2c-0.4,0-0.7,0.1-1.1,0.1
		C9.4-1.4,9.1-1.5,8.6-1.4C6.9-1.2,5.1-1,3.4-0.6C3.1-1,2.7-1.2,2.2-1.2c-2.7,0.2-7,0.4-8,3.5C-6,3.2-5.3,4.2-4.3,4.2
		c0.5,0,1.1-0.1,1.6-0.1C-2.9,4.3-3,4.6-3,4.9c-0.8-0.1-1.8,0.3-1.9,1.4c-0.2,1.4-0.3,2.9-0.5,4.3c-0.2,0.6-0.4,1.3-0.6,1.9
		c-0.1,0.4,0,1,0.3,1.4c-0.3,2.9-0.5,5.9-0.6,8.9c0,1.5,2.1,2.1,2.8,0.8c0,0,0,0,0-0.1c0,0.2,0.1,0.4,0.1,0.7
		c0.2,1.5,2.6,2.2,2.9,0.4c0-0.1,0.1-0.3,0.1-0.4c0,0.1,0.1,0.3,0.1,0.4c-0.3,0.5-0.5,1.1-0.7,1.7c-0.3,0-0.7,0.1-1,0.1
		c-0.4,0-0.7,0.2-0.9,0.4c-0.2-0.1-0.4-0.1-0.6-0.1c-1.7,0.2-3.4,0.4-5.1,0.5c-1.9,0.2-2,3,0,3c0.8,0,1.7,0,2.5,0
		c0.2,0.2,0.5,0.3,0.8,0.3l5.3,0c0.2,0.2,0.5,0.3,0.9,0.3c3.1-0.2,6.2-0.2,9.3-0.1c0.2,0.4,0.6,0.6,1.2,0.6c2.3-0.1,4.5-0.2,6.8-0.3
		c0.1,0,0.2,0,0.3,0c4-0.1,8.1-0.3,12.1-0.5c0.6,0,1-0.4,1.3-0.8c2-0.2,4-0.5,6.1-0.9C39.3,28.3,38.9,25.7,37.2,25.7z"/>
</g>
<g id="Minus" class="st0">
	<line class="st3" x1="5.5" y1="15" x2="24.5" y2="15"/>
	<g class="st1">
		<path class="st2" d="M5.5,16c6.3,0,12.7,0,19,0c1.3,0,1.3-2,0-2c-6.3,0-12.7,0-19,0C4.2,14,4.2,16,5.5,16L5.5,16z"/>
	</g>
</g>
<g id="Mult1">
	<line class="st2" x1="21.7" y1="8.3" x2="8.3" y2="21.7"/>
	<g>
		<path class="st2" d="M21,7.6c-4.5,4.5-9,9-13.4,13.4c-0.9,0.9,0.5,2.3,1.4,1.4c4.5-4.5,9-9,13.4-13.4C23.3,8.1,21.9,6.7,21,7.6
			L21,7.6z"/>
	</g>
</g>
<g id="Mult2">
	<line class="st2" x1="8.3" y1="8.3" x2="21.7" y2="21.7"/>
	<g>
		<path class="st2" d="M7.6,9c4.5,4.5,9,9,13.4,13.4c0.9,0.9,2.3-0.5,1.4-1.4c-4.5-4.5-9-9-13.4-13.4C8.1,6.7,6.7,8.1,7.6,9L7.6,9z"
			/>
	</g>
</g>
<g id="Plius" class="st0">
	<line class="st3" x1="15" y1="5.5" x2="15" y2="24.5"/>
	<g class="st1">
		<path class="st2" d="M14,5.5c0,6.3,0,12.7,0,19c0,1.3,2,1.3,2,0c0-6.3,0-12.7,0-19C16,4.2,14,4.2,14,5.5L14,5.5z"/>
	</g>
</g>
<circle id="Divide_2" class="st4" cx="15" cy="8" r="1"/>
<circle id="Divide_1" class="st4" cx="15" cy="22" r="1"/>
</svg>
